<svg xmlns="http://www.w3.org/2000/svg" viewBox="0 0 550.74 239.11"><defs><style>.cls-1{isolation:isolate;}.cls-2{fill:#e5eaea;}.cls-3{fill:#ee5747;}.cls-4{font-size:83.22px;font-family:Montserrat-Bold, Montserrat;font-weight:700;}.cls-4,.cls-7{fill:#f69c2a;}.cls-5{letter-spacing:-0.01em;}.cls-6{fill:#58595b;}.cls-8{fill:#e8812f;}.cls-9{fill:#e6e7e8;mix-blend-mode:multiply;}</style></defs><title>logo-revomarketing-light</title><g class="cls-1"><g id="Layer_1" data-name="Layer 1"><path class="cls-2" d="M3126.91,923q0,28.18-22.32,36.41l29.7,41.94h-32.21l-26-37.41H3058v37.41h-26.18V884.1h44.46q27.35,0,39,9.23T3126.91,923ZM3095.37,937q4.86-4.37,4.86-13.84t-5-13q-5-3.51-17.62-3.52H3058v34.73h19.12Q3090.51,941.31,3095.37,937Z" transform="translate(-3031.78 -872.49)"/><path class="cls-2" d="M3238.3,884.1v23.32h-58.38v24.16h52.51v22.31h-52.51v24.33h60.23v23.15h-86.4V884.1Z" transform="translate(-3031.78 -872.49)"/><path class="cls-2" d="M3306.75,958.76l29.86-74.66H3365l-47.15,117.27h-22.14L3248.54,884.1h28.35Z" transform="translate(-3031.78 -872.49)"/><path class="cls-3" d="M3474.85,985.18q-17.78,17.37-43.78,17.36t-43.79-17.36q-17.79-17.37-17.78-43.2t17.78-43.2q17.78-17.37,43.79-17.36t43.78,17.36q17.79,17.37,17.79,43.2T3474.85,985.18Z" transform="translate(-3031.78 -872.49)"/><circle class="cls-2" cx="399.28" cy="70.25" r="38"/><circle class="cls-3" cx="399.28" cy="69.49" r="15.79"/><text class="cls-4" transform="translate(115.24 218.31)">mark<tspan class="cls-5" x="214.96" y="0">e</tspan><tspan x="265.9" y="0">ting</tspan></text><rect class="cls-6" x="3459.79" y="868.26" width="3.5" height="87.5" transform="translate(-1373.04 -3053.05) rotate(45)"/><polygon class="cls-7" points="455.86 13.42 460.9 18.45 454.02 20.29 447.14 22.14 448.99 15.26 450.83 8.38 455.86 13.42"/><polygon class="cls-8" points="460.05 9.22 465.09 14.26 458.21 16.1 451.33 17.95 453.18 11.07 455.02 4.19 460.05 9.22"/><polygon class="cls-7" points="464.24 5.04 469.28 10.07 462.4 11.91 455.52 13.76 457.37 6.88 459.21 0 464.24 5.04"/><rect class="cls-9" x="3451.09" y="931.28" width="3.5" height="62.9" transform="translate(3543.34 -1670.54) rotate(135)"/></g></g></svg>